HIERARCHY
ROOT Frame
{
	OFFSET 0.0 0.0 0.0
	CHANNELS 0
	JOINT Door_Left
	{
		OFFSET 0.0 -1.75 0.0
		CHANNELS 3 Xrotation Yrotation Zrotation
		End Site
		{
			OFFSET 0.0 0.0 0.0
		}
	}
	JOINT Door_Right
	{
		OFFSET 0.0 3.2 0.0
		CHANNELS 3 Xrotation Yrotation Zrotation
		End Site
		{
			OFFSET 0.0 0.0 0.0
		}
	}
}
MOTION
Frames: 250
Frame Time: 0.041667
 0.0 0.0 2.5000 0.0 0.0 -2.500
 0.0 0.0 9.3600 0.0 0.0 -9.360
 0.0 0.0 19.430 0.0 0.0 -19.43
 0.0 0.0 31.680 0.0 0.0 -31.68
 0.0 0.0 45.000 0.0 0.0 -45.00
 0.0 0.0 58.320 0.0 0.0 -58.32
 0.0 0.0 70.560 0.0 0.0 -70.56
 0.0 0.0 80.640 0.0 0.0 -80.64
 0.0 0.0 87.480 0.0 0.0 -87.48
 0.0 0.0 90.000 0.0 0.0 -90.00
 0.0 0.0 88.700 0.0 0.0 -88.70
 0.0 0.0 84.960 0.0 0.0 -84.96
 0.0 0.0 79.070 0.0 0.0 -79.07
 0.0 0.0 71.280 0.0 0.0 -71.28
 0.0 0.0 61.870 0.0 0.0 -61.87
 0.0 0.0 51.120 0.0 0.0 -51.12
 0.0 0.0 39.290 0.0 0.0 -39.29
 0.0 0.0 26.640 0.0 0.0 -26.64
 0.0 0.0 13.450 0.0 0.0 -13.45 
 0.0 0.0 0.0000 0.0 0.0 0.0000
 0.0 0.0 -13.45 0.0 0.0 13.450
 0.0 0.0 -26.64 0.0 0.0 26.640
 0.0 0.0 -39.29 0.0 0.0 39.290
 0.0 0.0 -51.12 0.0 0.0 51.120
 0.0 0.0 -61.87 0.0 0.0 61.870
 0.0 0.0 -71.28 0.0 0.0 71.280
 0.0 0.0 -79.07 0.0 0.0 79.070
 0.0 0.0 -84.96 0.0 0.0 84.960
 0.0 0.0 -88.70 0.0 0.0 88.700
 0.01 0.2 -90.00 0.0 0.0 90.000
 0.0 0.0 -87.48 0.0 0.0 87.480
 0.0 0.0 -80.64 0.0 0.0 80.640
 0.0 0.0 -70.56 0.0 0.0 70.560
 0.0 0.0 -58.32 0.0 0.0 58.320
 0.0 0.0 -45.00 0.0 0.0 45.000
 0.0 0.0 -31.68 0.0 0.0 31.680
 0.0 0.0 -19.43 0.0 0.0 19.430
 0.0 0.0 -9.360 0.0 0.0 9.3600
 0.0 0.0 -2.500 0.0 0.0 2.5000
 0.0 0.0 0.0000 0.0 0.0 0.0000 
 0.0 0.0 0.0000 0.0 0.0 0.0000 
 0.0 0.0 0.0000 0.0 0.0 0.0000 
 0.0 0.0 0.0000 0.0 0.0 0.0000 
 0.0 0.0 0.0000 0.0 0.0 0.0000 
 0.0 0.0 0.0000 0.0 0.0 0.0000 
 0.0 0.0 0.0000 0.0 0.0 0.0000 
 0.0 0.0 0.0000 0.0 0.0 0.0000 
 0.0 0.0 0.0000 0.0 0.0 0.0000 
 0.0 0.0 0.0000 0.0 0.0 0.0000 
 0.0 0.0 0.0000 0.0 0.0 0.0000 
 0.0 0.0 0.0000 0.0 0.0 0.0000 
 0.0 0.0 0.0000 0.0 0.0 0.0000 
 0.0 0.0 0.0000 0.0 0.0 0.0000 
 0.0 0.0 0.0000 0.0 0.0 0.0000 
 0.0 0.0 0.0000 0.0 0.0 0.0000 
 0.0 0.0 0.0000 0.0 0.0 0.0000 
 0.0 0.0 0.0000 0.0 0.0 0.0000 
 0.0 0.0 0.0000 0.0 0.0 0.0000 
 0.0 0.0 0.0000 0.0 0.0 0.0000 
 0.0 0.0 0.0000 0.0 0.0 0.0000 
 0.0 0.0 0.0000 0.0 0.0 0.0000 
 0.0 0.0 0.0000 0.0 0.0 0.0000 
 0.0 0.0 0.0000 0.0 0.0 0.0000 
 0.0 0.0 0.0000 0.0 0.0 0.0000 
 0.0 0.0 0.0000 0.0 0.0 0.0000 
 0.0 0.0 0.0000 0.0 0.0 0.0000 
 0.0 0.0 0.0000 0.0 0.0 0.0000 
 0.0 0.0 0.0000 0.0 0.0 0.0000 
 0.0 0.0 0.0000 0.0 0.0 0.0000 
 0.0 0.0 0.0000 0.0 0.0 0.0000 
 0.0 0.0 0.0000 0.0 0.0 0.0000 
 0.0 0.0 0.0000 0.0 0.0 0.0000 
 0.0 0.0 0.0000 0.0 0.0 0.0000 
 0.0 0.0 0.0000 0.0 0.0 0.0000 
 0.0 0.0 0.0000 0.0 0.0 0.0000 
 0.0 0.0 0.0000 0.0 0.0 0.0000 
 0.0 0.0 0.0000 0.0 0.0 0.0000 
 0.0 0.0 0.0000 0.0 0.0 0.0000 
 0.0 0.0 0.0000 0.0 0.0 0.0000 
 0.0 0.0 0.0000 0.0 0.0 0.0000 
 0.0 0.0 0.0000 0.0 0.0 0.0000 
 0.0 0.0 0.0000 0.0 0.0 0.0000 
 0.0 0.0 0.0000 0.0 0.0 0.0000 
 0.0 0.0 0.0000 0.0 0.0 0.0000 
 0.0 0.0 0.0000 0.0 0.0 0.0000 
 0.0 0.0 0.0000 0.0 0.0 0.0000 
 0.0 0.0 0.0000 0.0 0.0 0.0000 
 0.0 0.0 0.0000 0.0 0.0 0.0000 
 0.0 0.0 0.0000 0.0 0.0 0.0000 
 0.0 0.0 0.0000 0.0 0.0 0.0000 
 0.0 0.0 0.0000 0.0 0.0 0.0000 
 0.0 0.0 0.0000 0.0 0.0 0.0000 
 0.0 0.0 0.0000 0.0 0.0 0.0000 
 0.0 0.0 0.0000 0.0 0.0 0.0000 
 0.0 0.0 0.0000 0.0 0.0 0.0000 
 0.0 0.0 0.0000 0.0 0.0 0.0000 
 0.0 0.0 0.0000 0.0 0.0 0.0000 
 0.0 0.0 0.0000 0.0 0.0 0.0000 
 0.0 0.0 0.0000 0.0 0.0 0.0000 
 0.0 0.0 0.0000 0.0 0.0 0.0000 
 0.0 0.0 0.0000 0.0 0.0 0.0000 
 0.0 0.0 0.0000 0.0 0.0 0.0000 
 0.0 0.0 0.0000 0.0 0.0 0.0000 
 0.0 0.0 0.0000 0.0 0.0 0.0000 
 0.0 0.0 0.0000 0.0 0.0 0.0000 
 0.0 0.0 0.0000 0.0 0.0 0.0000 
 0.0 0.0 0.0000 0.0 0.0 0.0000 
 0.0 0.0 0.0000 0.0 0.0 0.0000 
 0.0 0.0 0.0000 0.0 0.0 0.0000 
 0.0 0.0 0.0000 0.0 0.0 0.0000 
 0.0 0.0 0.0000 0.0 0.0 0.0000 
 0.0 0.0 0.0000 0.0 0.0 0.0000 
 0.0 0.0 0.0000 0.0 0.0 0.0000 
 0.0 0.0 0.0000 0.0 0.0 0.0000 
 0.0 0.0 0.0000 0.0 0.0 0.0000 
 0.0 0.0 0.0000 0.0 0.0 0.0000 
 0.0 0.0 0.0000 0.0 0.0 0.0000 
 0.0 0.0 0.0000 0.0 0.0 0.0000 
 0.0 0.0 0.0000 0.0 0.0 0.0000 
 0.0 0.0 0.0000 0.0 0.0 0.0000 
 0.0 0.0 0.0000 0.0 0.0 0.0000 
 0.0 0.0 0.0000 0.0 0.0 0.0000 
 0.0 0.0 0.0000 0.0 0.0 0.0000 
 0.0 0.0 0.0000 0.0 0.0 0.0000 
 0.0 0.0 0.0000 0.0 0.0 0.0000 
 0.0 0.0 0.0000 0.0 0.0 0.0000 
 0.0 0.0 0.0000 0.0 0.0 0.0000 
 0.0 0.0 0.0000 0.0 0.0 0.0000 
 0.0 0.0 0.0000 0.0 0.0 0.0000 
 0.0 0.0 0.0000 0.0 0.0 0.0000 
 0.0 0.0 0.0000 0.0 0.0 0.0000 
 0.0 0.0 0.0000 0.0 0.0 0.0000 
 0.0 0.0 0.0000 0.0 0.0 0.0000 
 0.0 0.0 0.0000 0.0 0.0 0.0000 
 0.0 0.0 0.0000 0.0 0.0 0.0000 
 0.0 0.0 0.0000 0.0 0.0 0.0000 
 0.0 0.0 0.0000 0.0 0.0 0.0000 
 0.0 0.0 0.0000 0.0 0.0 0.0000 
 0.0 0.0 0.0000 0.0 0.0 0.0000 
 0.0 0.0 0.0000 0.0 0.0 0.0000 
 0.0 0.0 0.0000 0.0 0.0 0.0000 
 0.0 0.0 0.0000 0.0 0.0 0.0000 
 0.0 0.0 0.0000 0.0 0.0 0.0000 
 0.0 0.0 0.0000 0.0 0.0 0.0000 
 0.0 0.0 0.0000 0.0 0.0 0.0000 
 0.0 0.0 0.0000 0.0 0.0 0.0000 
 0.0 0.0 0.0000 0.0 0.0 0.0000 
 0.0 0.0 0.0000 0.0 0.0 0.0000 
 0.0 0.0 0.0000 0.0 0.0 0.0000 
 0.0 0.0 0.0000 0.0 0.0 0.0000 
 0.0 0.0 0.0000 0.0 0.0 0.0000 
 0.0 0.0 0.0000 0.0 0.0 0.0000 
 0.0 0.0 0.0000 0.0 0.0 0.0000 
 0.0 0.0 0.0000 0.0 0.0 0.0000 
 0.0 0.0 0.0000 0.0 0.0 0.0000 
 0.0 0.0 0.0000 0.0 0.0 0.0000 
 0.0 0.0 0.0000 0.0 0.0 0.0000 
 0.0 0.0 0.0000 0.0 0.0 0.0000 
 0.0 0.0 0.0000 0.0 0.0 0.0000 
 0.0 0.0 0.0000 0.0 0.0 0.0000 
 0.0 0.0 0.0000 0.0 0.0 0.0000 
 0.0 0.0 0.0000 0.0 0.0 0.0000 
 0.0 0.0 0.0000 0.0 0.0 0.0000 
 0.0 0.0 0.0000 0.0 0.0 0.0000 
 0.0 0.0 0.0000 0.0 0.0 0.0000 
 0.0 0.0 0.0000 0.0 0.0 0.0000 
 0.0 0.0 0.0000 0.0 0.0 0.0000 
 0.0 0.0 0.0000 0.0 0.0 0.0000 
 0.0 0.0 0.0000 0.0 0.0 0.0000 
 0.0 0.0 0.0000 0.0 0.0 0.0000 
 0.0 0.0 0.0000 0.0 0.0 0.0000 
 0.0 0.0 0.0000 0.0 0.0 0.0000 
 0.0 0.0 0.0000 0.0 0.0 0.0000 
 0.0 0.0 0.0000 0.0 0.0 0.0000 
 0.0 0.0 0.0000 0.0 0.0 0.0000 
 0.0 0.0 0.0000 0.0 0.0 0.0000 
 0.0 0.0 0.0000 0.0 0.0 0.0000 
 0.0 0.0 0.0000 0.0 0.0 0.0000 
 0.0 0.0 0.0000 0.0 0.0 0.0000 
 0.0 0.0 0.0000 0.0 0.0 0.0000 
 0.0 0.0 0.0000 0.0 0.0 0.0000 
 0.0 0.0 0.0000 0.0 0.0 0.0000 
 0.0 0.0 0.0000 0.0 0.0 0.0000 
 0.0 0.0 0.0000 0.0 0.0 0.0000 
 0.0 0.0 0.0000 0.0 0.0 0.0000 
 0.0 0.0 0.0000 0.0 0.0 0.0000 
 0.0 0.0 0.0000 0.0 0.0 0.0000 
 0.0 0.0 0.0000 0.0 0.0 0.0000 
 0.0 0.0 0.0000 0.0 0.0 0.0000 
 0.0 0.0 0.0000 0.0 0.0 0.0000 
 0.0 0.0 0.0000 0.0 0.0 0.0000 
 0.0 0.0 0.0000 0.0 0.0 0.0000 
 0.0 0.0 0.0000 0.0 0.0 0.0000 
 0.0 0.0 0.0000 0.0 0.0 0.0000 
 0.0 0.0 0.0000 0.0 0.0 0.0000 
 0.0 0.0 0.0000 0.0 0.0 0.0000 
 0.0 0.0 0.0000 0.0 0.0 0.0000 
 0.0 0.0 0.0000 0.0 0.0 0.0000 
 0.0 0.0 0.0000 0.0 0.0 0.0000 
 0.0 0.0 0.0000 0.0 0.0 0.0000 
 0.0 0.0 0.0000 0.0 0.0 0.0000 
 0.0 0.0 0.0000 0.0 0.0 0.0000 
 0.0 0.0 0.0000 0.0 0.0 0.0000 
 0.0 0.0 0.0000 0.0 0.0 0.0000 
 0.0 0.0 0.0000 0.0 0.0 0.0000 
 0.0 0.0 0.0000 0.0 0.0 0.0000 
 0.0 0.0 0.0000 0.0 0.0 0.0000 
 0.0 0.0 0.0000 0.0 0.0 0.0000 
 0.0 0.0 0.0000 0.0 0.0 0.0000 
 0.0 0.0 0.0000 0.0 0.0 0.0000 
 0.0 0.0 0.0000 0.0 0.0 0.0000 
 0.0 0.0 0.0000 0.0 0.0 0.0000 
 0.0 0.0 0.0000 0.0 0.0 0.0000 
 0.0 0.0 0.0000 0.0 0.0 0.0000 
 0.0 0.0 0.0000 0.0 0.0 0.0000 
 0.0 0.0 0.0000 0.0 0.0 0.0000 
 0.0 0.0 0.0000 0.0 0.0 0.0000 
 0.0 0.0 0.0000 0.0 0.0 0.0000 
 0.0 0.0 0.0000 0.0 0.0 0.0000 
 0.0 0.0 0.0000 0.0 0.0 0.0000 
 0.0 0.0 0.0000 0.0 0.0 0.0000 
 0.0 0.0 0.0000 0.0 0.0 0.0000 
 0.0 0.0 0.0000 0.0 0.0 0.0000 
 0.0 0.0 0.0000 0.0 0.0 0.0000 
 0.0 0.0 0.0000 0.0 0.0 0.0000 
 0.0 0.0 0.0000 0.0 0.0 0.0000 
 0.0 0.0 0.0000 0.0 0.0 0.0000 
 0.0 0.0 0.0000 0.0 0.0 0.0000 
 0.0 0.0 0.0000 0.0 0.0 0.0000 
 0.0 0.0 0.0000 0.0 0.0 0.0000 
 0.0 0.0 0.0000 0.0 0.0 0.0000 
 0.0 0.0 0.0000 0.0 0.0 0.0000 
 0.0 0.0 0.0000 0.0 0.0 0.0000 
 0.0 0.0 0.0000 0.0 0.0 0.0000 
 0.0 0.0 0.0000 0.0 0.0 0.0000 
 0.0 0.0 0.0000 0.0 0.0 0.0000 
 0.0 0.0 0.0000 0.0 0.0 0.0000 
 0.0 0.0 0.0000 0.0 0.0 0.0000 
 0.0 0.0 0.0000 0.0 0.0 0.0000 
 0.0 0.0 0.0000 0.0 0.0 0.0000 
 0.0 0.0 0.0000 0.0 0.0 0.0000 
 0.0 0.0 0.0000 0.0 0.0 0.0000 
 0.0 0.0 0.0000 0.0 0.0 0.0000 
 0.0 0.0 0.0000 0.0 0.0 0.0000 
 0.0 0.0 0.0000 0.0 0.0 0.0000 
 0.0 0.0 0.0000 0.0 0.0 0.0000 
 0.0 0.0 0.0000 0.0 0.0 0.0000 
 0.0 0.0 0.0000 0.0 0.0 0.0000 
 0.0 0.0 0.0000 0.0 0.0 0.0000 
 0.0 0.0 0.0000 0.0 0.0 0.0000 
